<svg width="1200" height="290" viewBox="0 0 1200 290" fill="none" xmlns="http://www.w3.org/2000/svg">
<path d="M86.8215 146.037L105.584 0H161.503L124.714 285.567H36.7887L0 0H55.5512L74.6813 146.037C78.3599 172.786 80.1994 208.934 80.1994 236.045H81.3033C81.3033 208.934 83.5103 172.786 86.8215 146.037Z" fill="#313131"/>
<path d="M159.686 209.295V153.989C159.686 100.49 182.863 74.103 229.585 74.103H232.896C278.882 74.103 302.794 99.7677 302.794 149.29V185.438H213.03V212.187C213.03 228.815 219.652 238.575 231.424 238.575C242.829 238.575 249.451 230.984 249.451 217.971H302.794C302.794 264.963 280.721 289.182 232.896 289.182H229.585C182.863 289.182 159.686 262.794 159.686 209.295ZM213.03 149.29H249.451C248.347 133.747 242.093 124.71 231.792 124.71C220.388 124.71 213.766 133.747 213.03 149.29Z" fill="#313131"/>
<path d="M364.536 103.383C372.998 84.9471 389.184 74.103 408.683 74.103H417.512V124.71H393.599C377.412 124.71 368.951 135.193 368.951 156.158V285.567H315.607V130.132C315.607 101.184 339.49 77.7175 368.951 77.7175C368.951 85.6702 367.111 95.7916 363.801 103.021L364.536 103.383Z" fill="#313131"/>
<path d="M518.859 104.1C518.963 104.301 519.212 104.385 519.416 104.285C519.62 104.185 519.703 103.947 519.607 103.746C515.651 95.4396 512.792 83.3559 512.792 73.3798V0H566.135V285.567H512.792V285.206C512.792 277.615 514.265 270.023 516.841 265.325L516.47 264.963C508.377 279.422 491.821 289.182 474.533 289.182C438.845 289.182 423.029 264.601 423.029 209.657V153.628C423.029 98.6834 438.479 74.103 473.06 74.103C492.807 74.103 508.552 84.102 518.859 104.1ZM512.792 210.741V153.266C512.792 135.192 506.172 124.71 494.397 124.71C483.362 124.71 476.372 135.193 476.372 152.544V212.187C476.372 228.815 482.992 238.575 494.397 238.575C506.172 238.575 512.792 228.454 512.792 210.741Z" fill="#313131"/>
<path d="M582.899 285.567V77.7175H636.245V285.567H582.899ZM608.651 50.6068C594.429 50.6068 582.899 39.2781 582.899 25.3034C582.899 11.3287 594.429 0 608.651 0H610.494C624.716 0 636.245 11.3287 636.245 25.3034C636.245 39.2781 624.716 50.6068 610.494 50.6068H608.651Z" fill="#313131"/>
<path d="M1019.4 167.364H968.967V233.153H1038.87V285.567H962.447C935.571 285.567 913.785 264.159 913.785 237.75V47.8165C913.785 21.4082 935.571 0 962.447 0H1038.87V52.4143H968.967V114.588H1019.4V167.364Z" fill="#313131"/>
<path d="M1051.74 285.567V0H1128.26C1176.09 0 1200 26.3879 1200 79.8866V205.681C1200 259.179 1176.09 285.567 1128.26 285.567H1051.74ZM1106.93 233.153H1126.42C1137.83 233.153 1144.82 223.754 1144.82 207.849V79.1634C1144.82 62.5357 1137.83 52.4143 1126.42 52.4143H1106.93V233.153Z" fill="#313131"/>
<path d="M804.62 35.9643V77.7171H767.168V128.324H804.62V242.551C804.62 271.469 818.971 285.566 848.031 285.566H891.811V234.96H857.967V128.324H899.538V77.7171H857.967V35.9643H804.62Z" fill="#313131"/>
<path d="M702.349 155.073C702.349 138.084 708.969 128.324 720.745 128.324H751.598V77.7171H718.906C672.183 77.7171 649.007 103.743 649.007 156.519V210.38C649.007 263.155 672.183 289.181 718.906 289.181H722.214C768.936 289.181 792.112 262.793 792.112 210.018H738.77V211.464C738.77 228.453 732.15 238.575 720.745 238.575C708.969 238.575 702.349 229.176 702.349 212.91V155.073Z" fill="#313131"/>
<path d="M702.349 155.073C702.349 138.084 708.969 128.324 720.745 128.324H751.598V77.7171H718.906C672.183 77.7171 649.007 103.743 649.007 156.519V210.38C649.007 263.155 672.183 289.181 718.906 289.181H722.214C768.936 289.181 792.112 262.793 792.112 210.018H738.77V211.464C738.77 228.453 732.15 238.575 720.745 238.575C708.969 238.575 702.349 229.176 702.349 212.91V155.073Z" fill="#313131"/>
</svg>
