<svg preserveAspectRatio="none" overflow="visible" style="display: block;" width="141" height="34" viewBox="0 0 141 34" fill="none" xmlns="http://www.w3.org/2000/svg">
<g id="Vector">
<path d="M10.2015 17.17L12.4061 0H18.9766L14.6539 33.575H4.32268L0 0H6.52726L8.77505 17.17C9.20729 20.315 9.42344 24.565 9.42344 27.7525H9.55314C9.55314 24.565 9.81246 20.315 10.2015 17.17Z" fill="#FA581E"/>
<path d="M18.7631 24.6075V18.105C18.7631 11.815 21.4864 8.71251 26.9762 8.71251H27.3652C32.7686 8.71251 35.5783 11.73 35.5783 17.5525V21.8025H25.031V24.9475C25.031 26.9025 25.8091 28.05 27.1924 28.05C28.5324 28.05 29.3104 27.1575 29.3104 25.6275H35.5783C35.5783 31.1525 32.9847 34 27.3652 34H26.9762C21.4864 34 18.7631 30.8975 18.7631 24.6075ZM25.031 17.5525H29.3104C29.1808 15.725 28.4459 14.6625 27.2356 14.6625C25.8955 14.6625 25.1175 15.725 25.031 17.5525Z" fill="#FA581E"/>
<path d="M42.833 12.155C43.8272 9.98749 45.7292 8.71251 48.0202 8.71251H49.0576V14.6625H46.2479C44.3459 14.6625 43.3517 15.895 43.3517 18.36V33.575H37.0838V15.3C37.0838 11.8965 39.8901 9.13749 43.3517 9.13749C43.3517 10.0725 43.1356 11.2625 42.7466 12.1125L42.833 12.155Z" fill="#FA581E"/>
<path d="M60.9659 12.2394C60.9781 12.263 61.0074 12.2729 61.0314 12.2611C61.0553 12.2494 61.0651 12.2214 61.0539 12.1977C60.5889 11.2211 60.2531 9.80041 60.2531 8.62749V0H66.5208V33.575H60.2531V33.5325C60.2531 32.64 60.4261 31.7475 60.7288 31.195L60.6852 31.1525C59.7343 32.8525 57.789 34 55.7576 34C51.5642 34 49.7059 31.11 49.7059 24.65V18.0625C49.7059 11.6025 51.5212 8.71251 55.5845 8.71251C57.9049 8.71251 59.7549 9.88813 60.9659 12.2394ZM60.2531 24.7775V18.02C60.2531 15.895 59.4752 14.6625 58.0916 14.6625C56.795 14.6625 55.9737 15.895 55.9737 17.935V24.9475C55.9737 26.9025 56.7515 28.05 58.0916 28.05C59.4752 28.05 60.2531 26.86 60.2531 24.7775Z" fill="#FA581E"/>
<path d="M68.4906 33.575V9.13749H74.7588V33.575H68.4906ZM71.5164 5.95C69.8454 5.95 68.4906 4.61805 68.4906 2.975C68.4906 1.33195 69.8454 0 71.5164 0H71.733C73.4041 0 74.7588 1.33195 74.7588 2.975C74.7588 4.61805 73.4041 5.95 71.733 5.95H71.5164Z" fill="#FA581E"/>
<path d="M119.78 19.6775H113.854V27.4125H122.067V33.575H113.087C109.93 33.575 107.37 31.0579 107.37 27.953V5.62194C107.37 2.51703 109.93 0 113.087 0H122.067V6.16251H113.854V13.4725H119.78V19.6775Z" fill="#FA581E"/>
<path d="M123.58 33.575V0H132.571C138.19 0 141 3.1025 141 9.39251V24.1825C141 30.4725 138.19 33.575 132.571 33.575H123.58ZM130.064 27.4125H132.355C133.695 27.4125 134.516 26.3075 134.516 24.4375V9.30749C134.516 7.35251 133.695 6.16251 132.355 6.16251H130.064V27.4125Z" fill="#FA581E"/>
<path d="M94.5428 4.22844V9.13744H90.1422V15.0874H94.5428V28.5174C94.5428 31.9174 96.2291 33.5749 99.6436 33.5749H104.788V27.6249H100.811V15.0874H105.696V9.13744H100.811V4.22844H94.5428Z" fill="#FA581E"/>
<path d="M82.5261 18.2325C82.5261 16.2349 83.3039 15.0874 84.6875 15.0874H88.3127V9.13744H84.4714C78.9815 9.13744 76.2583 12.1974 76.2583 18.4025V24.735C76.2583 30.94 78.9815 34 84.4714 34H84.8601C90.35 34 93.0732 30.8974 93.0732 24.6925H86.8054V24.8625C86.8054 26.8599 86.0276 28.05 84.6875 28.05C83.3039 28.05 82.5261 26.9449 82.5261 25.0325V18.2325Z" fill="#FA581E"/>
<path d="M82.5261 18.2325C82.5261 16.2349 83.3039 15.0874 84.6875 15.0874H88.3127V9.13744H84.4714C78.9815 9.13744 76.2583 12.1974 76.2583 18.4025V24.735C76.2583 30.94 78.9815 34 84.4714 34H84.8601C90.35 34 93.0732 30.8974 93.0732 24.6925H86.8054V24.8625C86.8054 26.8599 86.0276 28.05 84.6875 28.05C83.3039 28.05 82.5261 26.9449 82.5261 25.0325V18.2325Z" fill="#FA581E"/>
</g>
</svg>
